<svg xmlns="http://www.w3.org/2000/svg" viewBox="0 31.5 79.55000305175781 35.349998474121094" data-asc="1.2" ><defs/><g fill="#000000"><g transform="translate(0, 0)"><path d="M19.30 66.85Q17.70 66.85 16.38 66.53Q15.05 66.20 15.10 65.55Q15.35 63 15.55 61Q15.75 59 15.90 57.35Q14.35 57.20 12.70 57.20Q10.05 57.20 7.70 57.65Q5.35 58.10 4.05 59.10Q2.50 59 1.45 57.75Q0.40 56.50 0 54.65Q0.60 54.15 1.48 52.63Q2.35 51.10 3.38 48.95Q4.40 46.80 5.38 44.35Q6.35 41.90 7.18 39.52Q8 37.15 8.50 35.17Q9.00 33.20 9.00 32L9.30 31.65Q10.45 31.50 11.45 31.50Q14.25 31.50 15.65 32.77Q17.05 34.05 17.05 36.35Q17.05 39.25 14.80 43.42Q12.55 47.60 8.10 52.45Q8.80 52.30 9.50 52.25Q10.20 52.20 10.85 52.20Q13.50 52.20 16.30 53.35Q16.55 51.30 16.70 49.20Q16.85 47.10 17.05 44.25Q18.65 43.35 20.85 43.35Q22.85 43.35 24.80 44.10Q24.30 47.50 23.98 51.52Q23.65 55.55 23.65 59.55Q23.65 61.10 23.70 62.60Q23.75 64.10 23.90 65.55Q23.65 66.20 22.27 66.53Q20.90 66.85 19.30 66.85ZM40.65 60.35Q36.55 60.35 33.82 58.80Q31.10 57.25 29.57 54.67Q28.05 52.10 27.70 49.05Q27.35 46 28.05 42.95Q28.75 39.90 30.45 37.33Q32.15 34.75 34.72 33.20Q37.30 31.65 40.65 31.65Q44.70 31.65 47.45 33.20Q50.20 34.75 51.70 37.33Q53.20 39.90 53.55 42.95Q53.90 46 53.20 49.05Q52.50 52.10 50.83 54.67Q49.15 57.25 46.58 58.80Q44 60.35 40.65 60.35M40.60 55.35Q44.85 55.35 44.85 45.70Q44.85 36.60 40.60 36.65Q36.35 36.60 36.35 46.30Q36.35 55.35 40.60 55.35ZM74.05 66.85Q72.45 66.85 71.13 66.53Q69.80 66.20 69.85 65.55Q70.10 63 70.30 61Q70.50 59 70.65 57.35Q69.10 57.20 67.45 57.20Q64.80 57.20 62.45 57.65Q60.10 58.10 58.80 59.10Q57.25 59 56.20 57.75Q55.15 56.50 54.75 54.65Q55.35 54.15 56.23 52.63Q57.10 51.10 58.13 48.95Q59.15 46.80 60.13 44.35Q61.10 41.90 61.92 39.52Q62.75 37.15 63.25 35.17Q63.75 33.20 63.75 32L64.05 31.65Q65.20 31.50 66.20 31.50Q69 31.50 70.40 32.77Q71.80 34.05 71.80 36.35Q71.80 39.25 69.55 43.42Q67.30 47.60 62.85 52.45Q63.55 52.30 64.25 52.25Q64.95 52.20 65.60 52.20Q68.25 52.20 71.05 53.35Q71.30 51.30 71.45 49.20Q71.60 47.10 71.80 44.25Q73.40 43.35 75.60 43.35Q77.60 43.35 79.55 44.10Q79.05 47.50 78.72 51.52Q78.40 55.55 78.40 59.55Q78.40 61.10 78.45 62.60Q78.50 64.10 78.65 65.55Q78.40 66.20 77.03 66.53Q75.65 66.85 74.05 66.85Z"/></g></g></svg>
