<svg xmlns="http://www.w3.org/2000/svg" viewBox="0 31.299999237060547 80.81666564941406 35.500003814697266" data-asc="1.2" width="80.81666564941406" height="35.500003814697266"><defs/><g fill="#000000"><g transform="translate(0, 0)"><path d="M12.30 66.80Q10.15 66.80 7.98 66.08Q5.80 65.35 4 63.92Q2.20 62.50 1.10 60.38Q0 58.25 0 55.40L0.75 55Q2.20 57.80 4.55 59.25Q6.90 60.70 9.15 60.70Q11.45 60.70 13.13 59.15Q14.80 57.60 14.80 54.50Q14.80 52.60 13.83 51.10Q12.85 49.60 10.95 49.60Q9.70 49.60 8.43 50.42Q7.15 51.25 6.25 52.85Q5.05 52.95 3.65 52.27Q2.25 51.60 1.45 50.35Q3 45.55 3 41.35Q3 36.90 1.35 31.90L1.45 31.80Q4.60 32.25 7.83 32.55Q11.05 32.85 13.85 32.85Q16.50 32.85 18.53 32.50Q20.55 32.15 21.65 31.30Q21.65 36.15 20.33 38.45Q19 40.75 16.45 40.75Q13.65 40.75 9.35 38.30Q9.25 42.50 8 45.85Q10.40 44.90 12.95 44.90Q15.75 44.90 18.08 46.13Q20.40 47.35 21.83 49.73Q23.25 52.10 23.25 55.60Q23.25 58.35 22.05 60.92Q20.85 63.50 18.43 65.15Q16 66.80 12.30 66.80ZM38.65 60.35Q34.55 60.35 31.83 58.80Q29.10 57.25 27.58 54.67Q26.05 52.10 25.70 49.05Q25.35 46 26.05 42.95Q26.75 39.90 28.45 37.33Q30.15 34.75 32.73 33.20Q35.30 31.65 38.65 31.65Q42.70 31.65 45.45 33.20Q48.20 34.75 49.70 37.33Q51.20 39.90 51.55 42.95Q51.90 46 51.20 49.05Q50.50 52.10 48.83 54.67Q47.15 57.25 44.58 58.80Q42 60.35 38.65 60.35M38.60 55.35Q42.85 55.35 42.85 45.70Q42.85 36.60 38.60 36.65Q34.35 36.60 34.35 46.30Q34.35 55.35 38.60 55.35ZM67.80 60.35Q63.70 60.35 60.98 58.80Q58.25 57.25 56.73 54.67Q55.20 52.10 54.85 49.05Q54.50 46 55.20 42.95Q55.90 39.90 57.60 37.33Q59.30 34.75 61.88 33.20Q64.45 31.65 67.80 31.65Q71.85 31.65 74.60 33.20Q77.35 34.75 78.85 37.33Q80.35 39.90 80.70 42.95Q81.05 46 80.35 49.05Q79.65 52.10 77.98 54.67Q76.30 57.25 73.73 58.80Q71.15 60.35 67.80 60.35M67.75 55.35Q72 55.35 72 45.70Q72 36.60 67.75 36.65Q63.50 36.60 63.50 46.30Q63.50 55.35 67.75 55.35Z"/></g></g></svg>
