<svg xmlns="http://www.w3.org/2000/svg" viewBox="0 23.5 186.85000610351562 36.849998474121094" data-asc="1.2" width="186.85000610351562" height="36.849998474121094"><defs/><g fill="currentColor"><g transform="translate(0, 0)"><path d="M10.80 60.35Q6.25 60.35 3.35 58.65Q0.45 56.95 0.45 53.10Q0.45 52.70 0.48 52.38Q0.50 52.05 0.55 51.85Q0.75 50.45 1.40 48.40Q2.05 46.35 2.90 44.02Q3.75 41.70 4.55 39.45Q5.35 37.20 5.90 35.33Q6.45 33.45 6.45 32.30Q6.45 31 5.60 31Q4.65 31 3.25 32.42Q1.85 33.85 0.30 36.40L0 36.25Q0 32.95 1.30 30.55Q2.60 28.15 4.75 26.57Q6.90 25 9.55 24.25Q12.20 23.50 14.90 23.50Q18.25 23.50 21.20 24.57Q24.15 25.65 26.03 27.65Q27.90 29.65 27.90 32.55Q27.90 37.75 21.55 40.65Q25.30 41.50 27.05 43.50Q28.80 45.50 28.80 47.95Q28.80 50.10 27.53 52.27Q26.25 54.45 23.90 56.27Q21.55 58.10 18.23 59.23Q14.90 60.35 10.80 60.35M12.75 39.15Q15.05 39.20 16.78 38.42Q18.50 37.65 19.48 36.42Q20.45 35.20 20.45 33.90Q20.45 32.20 18.65 30.88Q16.85 29.55 13 29.55Q13.20 30.50 13.28 31.45Q13.35 32.40 13.35 33.30Q13.35 34.75 13.18 36.20Q13 37.65 12.75 39.15M12.20 54.25Q14.35 54.25 16 53.38Q17.65 52.50 18.60 51.13Q19.55 49.75 19.55 48.30Q19.55 46.30 17.65 44.60Q15.75 42.90 11.70 42.50Q11.50 44.05 10.88 45.80Q10.25 47.55 9.70 49.15Q9.15 50.75 9.15 51.95Q9.15 53 9.80 53.63Q10.45 54.25 12.20 54.25ZM37.70 60.20Q35.90 60.20 34.50 58.73Q33.10 57.25 33.10 54.55Q33.10 53.25 33.40 51.60Q33.70 49.95 34.10 48.23Q34.50 46.50 34.80 44.98Q35.10 43.45 35.10 42.45Q35.10 41.40 34.72 40.77Q34.35 40.15 33.75 40.15Q32.80 40.15 31.80 41.45L31.50 41.25Q31.45 40.45 31.85 39.35Q32.25 38.25 33.10 37.22Q33.95 36.20 35.27 35.50Q36.60 34.80 38.40 34.80Q41.05 34.80 42.25 36.33Q43.45 37.85 43.45 40Q43.45 40.35 43.42 40.72Q43.40 41.10 43.35 41.45Q45.15 38.20 47.13 36.47Q49.10 34.75 50.80 34.75Q52.40 34.75 53.15 36Q53.90 37.25 53.90 39Q53.90 40.60 53.27 42.25Q52.65 43.90 51.42 44.98Q50.20 46.05 48.45 46L48.25 45.90Q48.20 44.60 47.40 43.85Q46.60 43.10 45.60 43.10Q44.25 43.10 43.08 44.45Q41.90 45.80 41.90 48.35Q41.90 49.90 42.25 51.70Q42.60 53.50 42.60 54.75Q42.60 56.25 41.90 57.50Q41.20 58.75 40.10 59.48Q39 60.20 37.70 60.20ZM66.15 60.35Q62.50 60.35 60.10 58.88Q57.70 57.40 56.50 54.98Q55.30 52.55 55.30 49.75Q55.30 47.10 56.32 44.42Q57.35 41.75 59.33 39.55Q61.30 37.35 64.13 36Q66.95 34.65 70.50 34.65Q74.90 34.65 76.92 36.63Q78.95 38.60 78.95 41.40Q78.95 43.80 77.67 45.83Q76.40 47.85 74.30 49.08Q72.20 50.30 69.70 50.30Q68.40 50.30 67.05 49.90Q65.70 49.50 64.40 48.65Q64.65 51.75 66.20 53.15Q67.75 54.55 69.90 54.55Q71.40 54.55 72.90 53.98Q74.40 53.40 75.67 52.48Q76.95 51.55 77.65 50.50L78 50.75Q78 53.35 76.92 55.17Q75.85 57 74.10 58.15Q72.35 59.30 70.28 59.83Q68.20 60.35 66.15 60.35M67.30 46.85Q68.90 46.85 69.90 45.92Q70.90 45 71.40 43.75Q71.90 42.50 71.90 41.55Q71.90 40.40 71.25 39.63Q70.60 38.85 69.45 38.85Q68.55 38.85 67.47 39.50Q66.40 40.15 65.55 41.72Q64.70 43.30 64.45 46.10Q66.05 46.85 67.30 46.85ZM99.65 60.25Q97.90 60.25 96.60 59.10Q95.30 57.95 95.30 55.35Q95.30 55.10 95.30 54.85Q95.30 54.60 95.35 54.35Q93.85 57.35 91.98 58.77Q90.10 60.20 88.20 60.20Q86.45 60.20 84.90 58.98Q83.35 57.75 82.40 55.35Q81.45 52.95 81.45 49.55Q81.45 46.05 82.42 43.30Q83.40 40.55 85 38.65Q86.60 36.75 88.50 35.77Q90.40 34.80 92.20 34.80Q94.20 34.80 95.80 36.02Q97.40 37.25 98 39.90Q98.15 39.05 98.23 38.35Q98.30 37.65 98.30 37.40Q98.35 36.05 99.68 35.40Q101 34.75 102.60 34.75Q104 34.75 105.25 35.30Q106.50 35.85 106.95 37.15L107.05 37.45Q106.45 38.80 105.85 40.70Q105.25 42.60 104.75 44.67Q104.25 46.75 103.95 48.73Q103.65 50.70 103.65 52.20Q103.65 53.85 104 54.48Q104.35 55.10 104.85 55.10Q105.70 55.10 106.40 53.90L106.80 54.10Q106.80 55.80 105.70 57.20Q104.60 58.60 102.95 59.42Q101.30 60.25 99.65 60.25M91.50 53.90Q92.80 53.90 94.38 51.58Q95.95 49.25 97.10 44.90Q97.20 44.45 97.30 44.02Q97.40 43.60 97.45 43.20Q96.65 41.35 95.78 40.58Q94.90 39.80 94.05 39.80Q92.80 39.80 91.73 41.13Q90.65 42.45 89.98 44.45Q89.30 46.45 89.30 48.45Q89.30 51.20 89.93 52.55Q90.55 53.90 91.50 53.90ZM116.80 60.20Q115 60.20 113.43 58.95Q111.85 57.70 110.88 55.30Q109.90 52.90 109.90 49.50Q109.90 46 110.90 43.25Q111.90 40.50 113.53 38.58Q115.15 36.65 117.08 35.65Q119 34.65 120.85 34.65Q122.90 34.65 124.50 35.92Q126.10 37.20 126.70 39.90Q127.15 37.40 127.48 35.13Q127.80 32.85 127.80 31.10Q127.80 28.80 127.20 27.75L127.20 27.45Q128.35 26.15 129.73 25.52Q131.10 24.90 132.35 24.90Q134 24.90 135.15 25.92Q136.30 26.95 136.30 28.85Q136.30 29.90 135.95 31.95Q135.60 34 135.10 36.63Q134.60 39.25 134.08 42.02Q133.55 44.80 133.20 47.33Q132.85 49.85 132.85 51.70Q132.85 53.25 133.18 54.17Q133.50 55.10 134.25 55.10Q134.80 55.10 135.38 54.73Q135.95 54.35 136.15 53.85L136.50 54.10Q136.50 55.75 135.45 57.13Q134.40 58.50 132.80 59.35Q131.20 60.20 129.50 60.20Q127.65 60.20 126.58 59.17Q125.50 58.15 125.05 56.55Q124.60 54.95 124.55 53.25Q123 56.85 120.93 58.52Q118.85 60.20 116.80 60.20M120.15 53.85Q121.45 53.85 123.05 51.50Q124.65 49.15 125.85 44.65L126.15 43.10Q125.35 41.25 124.43 40.47Q123.50 39.70 122.65 39.70Q121.40 39.70 120.30 41.08Q119.20 42.45 118.53 44.58Q117.85 46.70 117.85 49.05Q117.85 51.30 118.50 52.58Q119.15 53.85 120.15 53.85ZM149.50 60.35Q145.85 60.35 143.45 58.88Q141.05 57.40 139.85 54.98Q138.65 52.55 138.65 49.75Q138.65 47.10 139.68 44.42Q140.70 41.75 142.68 39.55Q144.65 37.35 147.47 36Q150.30 34.65 153.85 34.65Q158.25 34.65 160.28 36.63Q162.30 38.60 162.30 41.40Q162.30 43.80 161.03 45.83Q159.75 47.85 157.65 49.08Q155.55 50.30 153.05 50.30Q151.75 50.30 150.40 49.90Q149.05 49.50 147.75 48.65Q148 51.75 149.55 53.15Q151.10 54.55 153.25 54.55Q154.75 54.55 156.25 53.98Q157.75 53.40 159.03 52.48Q160.30 51.55 161 50.50L161.35 50.75Q161.35 53.35 160.28 55.17Q159.20 57 157.45 58.15Q155.70 59.30 153.63 59.83Q151.55 60.35 149.50 60.35M150.65 46.85Q152.25 46.85 153.25 45.92Q154.25 45 154.75 43.75Q155.25 42.50 155.25 41.55Q155.25 40.40 154.60 39.63Q153.95 38.85 152.80 38.85Q151.90 38.85 150.82 39.50Q149.75 40.15 148.90 41.72Q148.05 43.30 147.80 46.10Q149.40 46.85 150.65 46.85ZM170.65 60.20Q168.85 60.20 167.45 58.73Q166.05 57.25 166.05 54.55Q166.05 53.25 166.35 51.60Q166.65 49.95 167.05 48.23Q167.45 46.50 167.75 44.98Q168.05 43.45 168.05 42.45Q168.05 41.40 167.68 40.77Q167.30 40.15 166.70 40.15Q165.75 40.15 164.75 41.45L164.45 41.25Q164.40 40.45 164.80 39.35Q165.20 38.25 166.05 37.22Q166.90 36.20 168.23 35.50Q169.55 34.80 171.35 34.80Q174 34.80 175.20 36.33Q176.40 37.85 176.40 40Q176.40 40.35 176.38 40.72Q176.35 41.10 176.30 41.45Q178.10 38.20 180.08 36.47Q182.05 34.75 183.75 34.75Q185.35 34.75 186.10 36Q186.85 37.25 186.85 39Q186.85 40.60 186.23 42.25Q185.60 43.90 184.38 44.98Q183.15 46.05 181.40 46L181.20 45.90Q181.15 44.60 180.35 43.85Q179.55 43.10 178.55 43.10Q177.20 43.10 176.03 44.45Q174.85 45.80 174.85 48.35Q174.85 49.90 175.20 51.70Q175.55 53.50 175.55 54.75Q175.55 56.25 174.85 57.50Q174.15 58.75 173.05 59.48Q171.95 60.20 170.65 60.20Z"/></g></g></svg>
